HIERARCHY
ROOT reference
{
	OFFSET 0.000000 0.000000 0.000000
	CHANNELS 6 Xposition Yposition Zposition Xrotation Yrotation Zrotation
	JOINT root
	{
		OFFSET 0.000000 88.249100 0.000000
		CHANNELS 3 Xrotation Yrotation Zrotation
		JOINT Hips
		{
			OFFSET 0.000000 0.000000 0.000000
			CHANNELS 3 Xrotation Yrotation Zrotation
			JOINT Spine
			{
				OFFSET -0.004200 -0.105484 0.026468
				CHANNELS 3 Xrotation Yrotation Zrotation
				JOINT Spine1
				{
					OFFSET 5.027490 17.193398 -4.853550
					CHANNELS 3 Xrotation Yrotation Zrotation
					JOINT Spine2
					{
						OFFSET 6.489570 17.043404 -3.457130
						CHANNELS 3 Xrotation Yrotation Zrotation
						JOINT Neck
						{
							OFFSET 8.669378 15.586197 -5.140713
							CHANNELS 3 Xrotation Yrotation Zrotation
							JOINT Head
							{
								OFFSET 6.523930 8.554810 -4.152532
								CHANNELS 3 Xrotation Yrotation Zrotation
								End Site
								{
									OFFSET 0.000000 0.100006 0.000000
								}
							}
						}
						JOINT RightShoulder
						{
							OFFSET 11.633701 14.542206 -3.299613
							CHANNELS 3 Xrotation Yrotation Zrotation
							JOINT RightArm
							{
								OFFSET 12.870399 -8.032120 5.333407
								CHANNELS 3 Xrotation Yrotation Zrotation
								JOINT RightForeArm
								{
									OFFSET 25.966301 -13.786201 0.595381
									CHANNELS 3 Xrotation Yrotation Zrotation
									JOINT RightHand
									{
										OFFSET 20.889801 -1.519981 -13.516900
										CHANNELS 3 Xrotation Yrotation Zrotation
										End Site
										{
											OFFSET 0.000000 0.099998 0.000000
										}
									}
								}
							}
						}
						JOINT LeftShoulder
						{
							OFFSET 5.713736 16.618195 -6.992720
							CHANNELS 3 Xrotation Yrotation Zrotation
							JOINT LeftArm
							{
								OFFSET -14.245000 3.247299 -6.718707
								CHANNELS 3 Xrotation Yrotation Zrotation
								JOINT LeftForeArm
								{
									OFFSET -23.957706 -14.592697 8.817435
									CHANNELS 3 Xrotation Yrotation Zrotation
									JOINT LeftHand
									{
										OFFSET -7.512060 -21.311096 -10.526401
										CHANNELS 3 Xrotation Yrotation Zrotation
										End Site
										{
											OFFSET 0.000000 0.099998 0.000000
										}
									}
								}
							}
						}
					}
				}
			}
			JOINT RightUpLeg
			{
				OFFSET 8.373440 -0.383102 4.593227
				CHANNELS 3 Xrotation Yrotation Zrotation
				JOINT RightLeg
				{
					OFFSET 19.962500 -39.044800 -10.208006
					CHANNELS 3 Xrotation Yrotation Zrotation
					JOINT RightFoot
					{
						OFFSET 1.150339 -40.875301 4.843627
						CHANNELS 3 Xrotation Yrotation Zrotation
						JOINT RightToe
						{
							OFFSET 13.504299 -6.853460 -9.736701
							CHANNELS 3 Xrotation Yrotation Zrotation
							End Site
							{
								OFFSET 0.000000 0.100000 0.000000
							}
						}
					}
				}
			}
			JOINT LeftUpLeg
			{
				OFFSET -8.373440 0.383102 -4.593220
				CHANNELS 3 Xrotation Yrotation Zrotation
				JOINT LeftLeg
				{
					OFFSET -13.250099 -42.687302 -5.425184
					CHANNELS 3 Xrotation Yrotation Zrotation
					JOINT LeftFoot
					{
						OFFSET -12.331501 -37.688301 11.095003
						CHANNELS 3 Xrotation Yrotation Zrotation
						JOINT LeftToe
						{
							OFFSET 0.239315 -7.519040 -16.356800
							CHANNELS 3 Xrotation Yrotation Zrotation
							End Site
							{
								OFFSET 0.000000 0.100000 0.000000
							}
						}
					}
				}
			}
		}
	}
}
MOTION
Frames: 8
Frame Time: 0.041667
36.745499 0.000000 -7.565443 -0.000000 0.000000 -0.000000 -6.961459 8.310880 -10.417298 1.769418 -1.303447 -3.379238 2.412101 3.458363 -1.548156 2.698106 0.759776 -0.984935 1.887108 0.314535 -0.644093 3.540622 1.417618 3.784573 2.892788 4.134311 8.476054 -6.472103 3.225338 20.195729 -4.342459 -17.061247 14.064158 0.180605 0.352300 0.240092 34.008847 8.045825 -45.085809 0.931894 9.127884 4.781009 46.662100 5.335473 -36.653462 -4.854009 5.006445 -5.781835 0.000003 -0.000002 0.000011 13.576072 -2.110239 19.821928 -12.346414 -0.502973 -15.629752 6.469305 0.427881 7.917078 0.548585 0.011377 -0.444331 -0.629811 6.376889 8.772927 13.491044 -4.140521 1.028585 -13.626627 4.365031 9.129666 -0.516620 0.000583 -1.929957 
38.982201 0.000000 -7.790554 -0.000000 0.000000 -0.000000 -4.746318 8.906757 -14.360406 0.531063 -0.374466 -1.003204 1.915013 2.194011 -1.481944 2.489372 1.113461 -1.558178 1.774880 0.565569 -1.038013 3.989277 1.505737 4.169827 3.376768 4.410658 9.425954 -5.302972 3.993291 18.310984 2.875190 -18.056138 16.303605 0.047290 0.091897 0.062784 32.511267 6.445308 -43.686720 0.618487 9.034242 5.262821 45.630465 7.325625 -32.347260 -9.045108 10.207296 -10.949788 0.777680 2.256896 1.088362 14.562899 -2.230128 22.449954 -16.832144 0.154761 -21.323535 8.394804 0.171537 12.895379 2.337307 0.028841 -1.863035 -5.094543 0.280290 8.172670 21.502996 -6.424879 2.083504 -17.196485 4.462637 17.805683 -0.538525 0.000584 -1.697629 
40.106499 0.000000 -7.914743 -0.000000 0.000000 -0.000000 -4.190636 8.937867 -15.109150 0.404135 -0.283644 -0.762604 1.835346 1.998955 -1.503687 2.420455 1.071444 -1.657472 1.726266 0.541283 -1.105982 4.130584 1.611510 4.216644 3.570277 4.622435 9.577710 -4.989065 4.463894 18.083086 4.078968 -17.806899 17.422279 -0.722888 -1.374764 -0.952919 32.135043 5.239947 -42.862395 0.462760 8.973074 5.490810 44.169085 8.554444 -30.209128 -10.099246 11.664479 -12.284717 0.648933 1.717433 1.347515 14.160420 -1.515830 22.994942 -17.899448 0.379005 -22.683789 8.922958 -0.372177 14.451738 2.621218 0.042279 -1.884079 -5.351139 -0.109992 8.562149 21.490050 -6.421297 2.081550 -16.469232 4.448842 18.495947 -0.561868 0.004755 -1.450211 
40.494999 0.000000 -8.074964 -0.000000 0.000000 -0.000000 -4.162649 8.863925 -14.701055 0.689077 -0.488486 -1.303429 1.821555 2.160226 -1.632184 2.286342 0.861511 -1.701744 1.621608 0.408045 -1.136542 4.182062 1.621398 4.293748 3.625145 4.628559 9.741249 -4.688060 4.867863 17.813743 3.371728 -16.953873 19.155320 -1.673882 -3.101192 -2.188139 31.480325 4.800115 -42.067214 0.686198 9.280264 5.323287 41.506520 9.848504 -27.929033 -10.504642 12.242418 -12.802700 0.213865 0.184360 1.530039 13.456248 -0.518821 22.905012 -18.277733 0.464848 -23.166576 9.214718 -1.021247 15.194099 2.908619 0.072303 -1.704250 -5.357866 3.563090 9.477520 21.464653 -6.414346 2.079329 -15.465710 5.230523 15.496251 -0.587799 0.010606 -1.175588 
40.458302 0.000000 -8.307493 -0.000000 0.000000 -0.000000 -4.717659 8.651059 -11.749145 1.947743 -1.443875 -3.725986 1.814209 3.071316 -1.953226 1.812278 0.270584 -1.586280 1.259540 0.041311 -1.060163 4.078165 1.738485 4.126810 3.594489 4.736304 9.357621 -4.275427 5.120247 17.116251 1.617113 -14.355435 22.238155 -3.730240 -6.545862 -4.798648 29.176208 4.619577 -40.016296 0.869044 9.277713 5.000819 36.779151 10.579359 -24.110255 -11.253387 13.336523 -13.766466 -0.139199 -1.248003 1.902999 11.416461 1.303658 21.446850 -17.391663 0.269027 -22.036422 8.779461 -2.294367 14.908348 3.270195 0.162808 -0.954369 -5.846585 9.523413 10.083331 21.464669 -6.414343 2.077725 -15.316696 5.755960 13.038286 -0.627384 0.015912 -0.756938 
39.037701 0.000000 -8.248254 -0.000000 0.000000 -0.000000 -5.058553 8.617102 -9.833941 2.578285 -1.954881 -4.962064 1.829640 3.488345 -2.044021 1.615159 -0.010039 -1.455536 1.105711 -0.134122 -0.971688 3.882208 1.633260 3.927122 3.470765 4.442605 8.899143 -3.954341 5.300471 16.552472 1.405668 -13.361398 22.905301 -4.680523 -8.017022 -5.981296 27.797261 4.343962 -38.650712 0.863731 8.957871 4.776907 35.074924 10.021551 -22.655555 -11.645660 13.923864 -14.275365 0.134257 -0.516926 2.192778 10.230630 1.813598 20.098521 -16.236925 0.041180 -20.566065 8.149827 -2.841375 14.235896 3.243376 0.191061 -0.673262 -6.160593 10.181325 9.575946 21.475867 -6.417405 2.079399 -15.083773 5.488450 13.807246 -0.633158 0.016856 -0.695831 
37.999500 0.000000 -8.429584 -0.000000 0.000000 -0.000000 -5.287585 8.250473 -6.603646 3.295957 -2.564386 -6.389314 1.690987 3.775103 -2.012266 1.214737 -0.350371 -1.203754 0.808910 -0.334684 -0.802378 3.665950 1.298918 3.570257 3.507502 3.698754 8.179981 -3.010715 5.668895 14.698367 2.303462 -11.983429 22.914675 -6.254622 -10.303427 -7.912787 23.480857 3.111713 -34.568106 1.118650 8.185319 3.764232 31.149891 8.932602 -20.192669 -11.319819 13.435224 -13.852440 0.718383 1.388433 2.405968 8.135922 0.829491 16.726515 -12.786305 -0.458539 -16.186775 6.081320 -2.538412 11.604362 2.559225 0.236627 0.283810 3.545212 5.363071 7.107942 0.012775 -0.004028 0.000517 -4.325351 1.338709 17.059709 -0.777694 0.017729 -0.023326 
36.301201 0.000000 -8.587402 -0.000000 0.000000 -0.000000 -5.215815 7.825437 -5.207888 3.435793 -2.686706 -6.670081 1.545341 3.795598 -1.900298 1.009695 -0.308223 -1.065249 0.671867 -0.290664 -0.710556 3.388365 0.902543 3.175368 3.444263 2.849353 7.381006 -2.455852 5.693435 13.375176 4.092319 -12.280704 21.906044 -5.969765 -9.902884 -7.565620 19.299521 3.087880 -31.028819 1.270083 7.691632 3.135818 29.093549 8.384161 -19.215296 -10.405308 12.099856 -12.675532 0.854860 1.937828 2.518832 7.118558 -0.332115 14.620464 -10.547214 -0.639933 -13.352871 4.796620 -1.790957 9.740553 1.926901 0.243627 0.926087 6.520127 3.081872 6.392253 -6.708736 2.127760 -0.143044 -3.039307 0.657874 18.130346 -0.698890 0.027161 -0.001697 
